<svg width="25" height="24" viewBox="0 0 25 24" fill="none" xmlns="http://www.w3.org/2000/svg">
<path d="M7.98792 18.4512C7.98792 18.9126 8.12473 19.3636 8.38106 19.7472C8.63739 20.1309 9.00173 20.4299 9.42799 20.6064C9.85426 20.783 10.3233 20.8292 10.7758 20.7392C11.2283 20.6492 11.644 20.427 11.9703 20.1007C12.2965 19.7745 12.5187 19.3588 12.6087 18.9063C12.6987 18.4538 12.6525 17.9847 12.4759 17.5585C12.2994 17.1322 12.0004 16.7679 11.6168 16.5115C11.2331 16.2552 10.7821 16.1184 10.3207 16.1184C9.70221 16.119 9.10923 16.365 8.67188 16.8024C8.23453 17.2397 7.98855 17.8327 7.98792 18.4512ZM11.2135 18.4512C11.2135 18.6278 11.1612 18.8004 11.0631 18.9472C10.965 19.094 10.8255 19.2085 10.6624 19.276C10.4992 19.3436 10.3197 19.3613 10.1465 19.3268C9.97335 19.2924 9.81427 19.2074 9.68941 19.0825C9.56455 18.9576 9.47952 18.7986 9.44507 18.6254C9.41062 18.4522 9.4283 18.2727 9.49588 18.1095C9.56345 17.9464 9.67788 17.807 9.8247 17.7089C9.97152 17.6108 10.1441 17.5584 10.3207 17.5584C10.5575 17.5584 10.7846 17.6525 10.952 17.8199C11.1195 17.9873 11.2135 18.2144 11.2135 18.4512Z" fill="#00240F"/>
<path d="M17.1274 16.1184C16.666 16.1184 16.2149 16.2552 15.8313 16.5115C15.4477 16.7679 15.1487 17.1322 14.9721 17.5585C14.7956 17.9847 14.7494 18.4538 14.8394 18.9063C14.9294 19.3588 15.1516 19.7745 15.4778 20.1007C15.8041 20.427 16.2197 20.6492 16.6722 20.7392C17.1248 20.8292 17.5938 20.783 18.0201 20.6064C18.4463 20.4299 18.8107 20.1309 19.067 19.7472C19.3233 19.3636 19.4602 18.9126 19.4602 18.4512C19.4595 17.8327 19.2135 17.2397 18.7762 16.8024C18.3388 16.365 17.7459 16.119 17.1274 16.1184ZM17.1274 19.344C16.9508 19.344 16.7782 19.2916 16.6313 19.1935C16.4845 19.0954 16.3701 18.956 16.3025 18.7929C16.2349 18.6297 16.2173 18.4502 16.2517 18.277C16.2862 18.1038 16.3712 17.9447 16.496 17.8199C16.6209 17.695 16.78 17.61 16.9532 17.5755C17.1264 17.5411 17.3059 17.5588 17.469 17.6264C17.6322 17.6939 17.7716 17.8084 17.8697 17.9552C17.9678 18.102 18.0202 18.2746 18.0202 18.4512C18.0195 18.6876 17.9252 18.914 17.7578 19.0809C17.5904 19.2479 17.3637 19.3416 17.1274 19.3416V19.344Z" fill="#00240F"/>
<path d="M21.2936 8.3424C21.3177 8.237 21.3178 8.12752 21.2939 8.02208C21.2699 7.91663 21.2225 7.81794 21.1552 7.73332C21.0879 7.64871 21.0024 7.58034 20.905 7.5333C20.8076 7.48626 20.7009 7.46176 20.5928 7.46161H8.49679L8.27839 6.37201C8.13007 5.61143 7.75373 4.91404 7.1994 4.37257C6.64507 3.8311 5.93903 3.47123 5.17518 3.34081L4.53438 3.22801C4.43931 3.20751 4.34106 3.20649 4.24558 3.22501C4.1501 3.24352 4.05936 3.28119 3.97884 3.33574C3.89831 3.39029 3.82968 3.46059 3.77707 3.5424C3.72446 3.6242 3.68898 3.71582 3.67275 3.81172C3.65652 3.90762 3.65989 4.00581 3.68266 4.10037C3.70543 4.19492 3.74711 4.28389 3.80521 4.3619C3.8633 4.4399 3.9366 4.50533 4.02067 4.55422C4.10475 4.60312 4.19786 4.63448 4.29438 4.64641L4.93518 4.75921C5.41238 4.84079 5.85345 5.06563 6.19983 5.40386C6.5462 5.74209 6.78147 6.17769 6.87439 6.65281L8.14158 12.9936C8.30448 13.8086 8.74435 14.5421 9.38654 15.0697C10.0287 15.5973 10.8337 15.8864 11.6648 15.888H16.688C17.5027 15.8907 18.294 15.6157 18.9314 15.1083C19.5688 14.6008 20.0143 13.8914 20.1944 13.0968L21.2936 8.3424ZM18.7928 12.7728C18.6841 13.2498 18.4166 13.6758 18.0343 13.981C17.6519 14.2862 17.1772 14.4525 16.688 14.4528H11.6648C11.1658 14.4532 10.682 14.2809 10.2956 13.965C9.90931 13.6491 9.64428 13.2092 9.54558 12.72L8.78479 8.89921H19.6856L18.7928 12.7728Z" fill="#00240F"/>
<circle cx="19.7" cy="8" r="3.2" fill="#EC0000"/>
</svg>
