<svg width="25" height="24" viewBox="0 0 25 24" fill="none" xmlns="http://www.w3.org/2000/svg">
<path d="M15.1431 13.5366C16.0592 12.3419 16.4865 10.8437 16.3382 9.3458C16.1898 7.8479 15.4771 6.46244 14.3444 5.47033C13.2117 4.47822 11.7438 3.95373 10.2385 4.00321C8.7331 4.05268 7.30291 4.67243 6.23788 5.73677C5.17286 6.80111 4.55272 8.23038 4.50321 9.73478C4.4537 11.2392 4.97853 12.7061 5.97128 13.8381C6.96402 14.97 8.35038 15.6823 9.84923 15.8306C11.3481 15.9788 12.8472 15.5518 14.0427 14.6362L19.1844 19.7746C19.329 19.9189 19.525 20 19.7294 20C19.9338 20 20.1298 19.9189 20.2744 19.7746C20.4189 19.6301 20.5 19.4342 20.5 19.2299C20.5 19.0257 20.4189 18.8298 20.2744 18.6853L15.1431 13.5366ZM10.4538 14.3176C9.58945 14.3176 8.74447 14.0615 8.02576 13.5816C7.30705 13.1016 6.74688 12.4195 6.41609 11.6214C6.0853 10.8234 5.99875 9.94517 6.16739 9.09793C6.33602 8.2507 6.75226 7.47246 7.36348 6.86164C7.9747 6.25082 8.75343 5.83484 9.60121 5.66632C10.449 5.49779 11.3277 5.58428 12.1263 5.91486C12.9249 6.24543 13.6075 6.80524 14.0877 7.52349C14.5679 8.24175 14.8243 9.08618 14.8243 9.95001C14.8216 11.1075 14.3602 12.2169 13.5412 13.0354C12.7222 13.8539 11.6121 14.3149 10.4538 14.3176Z" fill="#00240F"/>
</svg>
